<svg width="25" height="26" viewBox="0 0 25 26" fill="none" xmlns="http://www.w3.org/2000/svg">
<path d="M24.6094 13C24.6094 19.6878 19.1878 25.1094 12.5 25.1094C5.81216 25.1094 0.390625 19.6878 0.390625 13C0.390625 6.31216 5.81216 0.890625 12.5 0.890625C19.1878 0.890625 24.6094 6.31216 24.6094 13ZM11.0993 19.4118L20.0837 10.4274C20.3888 10.1224 20.3888 9.62769 20.0837 9.32261L18.9789 8.21777C18.6738 7.91265 18.1791 7.91265 17.874 8.21777L10.5469 15.5448L7.12603 12.124C6.82095 11.8189 6.32627 11.8189 6.02114 12.124L4.91631 13.2288C4.61123 13.5339 4.61123 14.0286 4.91631 14.3336L9.99443 19.4118C10.2996 19.7169 10.7942 19.7169 11.0993 19.4118Z" fill="white"/>
</svg>
