<svg width="31" height="30" viewBox="0 0 31 30" fill="none" xmlns="http://www.w3.org/2000/svg">
<path d="M7.30593 10.6775C4.81052 10.6378 2.90422 11.1621 2.63714 13.8197C2.55299 14.5767 2.58646 18.338 4.23893 19.3813C6.00238 20.5029 15.2099 18.9503 17.2661 18.5453C17.344 19.574 17.3828 20.3136 17.3831 20.7476C17.3928 23.3258 18.7917 24.3274 20.8823 22.6041L27.3776 17.2272L27.3784 17.2263C29.5517 15.419 29.7104 13.8441 26.9838 11.7808L20.4096 6.81165C17.2479 4.39966 15.7094 6.55068 16.2083 8.37239C16.2853 8.6329 16.4434 9.96177 16.5394 10.7878C14.9748 10.7677 12.2339 10.7525 7.30593 10.6775ZM17.9303 19.4855L18.293 19.4718L18.3304 20.4491L18.0362 20.4601C18.0125 20.461 17.9962 20.4769 17.9763 20.4878C17.9703 20.2229 17.9552 19.8894 17.9303 19.4855ZM18.5918 19.4602L19.3468 19.4318L19.3846 20.4087L18.6296 20.437L18.5918 19.4602ZM17.9821 20.7467C17.9819 20.7434 17.9817 20.7374 17.9816 20.7341C18.0031 20.7443 18.0224 20.7596 18.0477 20.7587L18.3419 20.7476L18.3679 21.4183C18.3711 21.5012 18.4405 21.5655 18.5234 21.5624C18.6062 21.5593 18.6704 21.4899 18.6672 21.4071L18.6412 20.7364L19.3962 20.7081L19.4384 21.7965L18.423 21.8346C18.3401 21.8377 18.2759 21.9071 18.2791 21.9899C18.2823 22.0728 18.3517 22.1371 18.4346 22.134L19.45 22.0959L19.4736 22.7065C19.4747 22.7361 19.4921 22.7587 19.5078 22.7814C18.3445 23.219 17.987 21.9988 17.9821 20.7467ZM22.6853 20.297C22.6857 20.308 22.6948 20.314 22.6978 20.3241L21.4426 21.363L21.3788 19.7172L22.661 19.6695L22.6853 20.297ZM21.1148 20.6279L21.1494 21.5209C21.1503 21.5455 21.1663 21.5627 21.1776 21.5821L20.7621 21.9259C20.7642 21.9148 20.7736 21.9073 20.7732 21.8963C20.77 21.8134 20.7006 21.7491 20.6178 21.7522L19.7368 21.7853L19.6947 20.6968L21.077 20.6449C21.0922 20.6444 21.101 20.6322 21.1148 20.6279ZM19.771 22.6576L19.7488 22.0842L20.6103 22.0519L20.5016 22.1419C20.2616 22.3394 20.016 22.5227 19.771 22.6576ZM25.6138 17.9104L25.6012 17.5865L26.0248 17.5706L25.6138 17.9104ZM16.8713 11.3906C17.0517 11.3932 17.1921 11.2363 17.1721 11.0579C16.9656 9.25613 16.8563 8.45605 16.7833 8.20978C16.4317 6.92671 17.3612 5.23771 20.0479 7.28852L26.6231 12.2593C29.1452 14.1689 28.7527 15.3055 26.9957 16.7664L26.2405 17.3914C26.226 17.3208 26.1692 17.2658 26.0948 17.2686L25.5884 17.2876L25.5759 16.9654C25.5727 16.8825 25.5033 16.8182 25.4205 16.8213C25.3376 16.8244 25.2734 16.8937 25.2766 16.9766L25.2891 17.2988L24.6897 17.3213C24.6068 17.3245 24.5426 17.3938 24.5458 17.4767C24.5491 17.5595 24.6184 17.6238 24.7013 17.6207L25.3007 17.5982L25.3221 18.1513L24.455 18.8691L24.4447 18.6027L24.5867 18.5973C24.6696 18.5942 24.7338 18.5249 24.7306 18.442C24.7273 18.3591 24.658 18.2948 24.5751 18.298L24.4331 18.3033C24.424 18.0682 24.4769 17.663 24.2587 17.6712C24.1759 17.6743 24.1117 17.7437 24.1149 17.8265L24.1342 18.3149L23.2021 18.3504C23.1193 18.3535 23.0551 18.4228 23.0583 18.5057C23.0615 18.5885 23.1309 18.6528 23.2137 18.6497L24.1463 18.6147L24.1641 19.0756C24.1645 19.0858 24.1736 19.0918 24.1757 19.101L22.9755 20.0947L22.958 19.6448C23.0204 19.6251 23.0696 19.5745 23.0674 19.5056C23.0651 19.4366 23.0121 19.3899 22.9476 19.375L22.9099 18.4007C22.9067 18.3178 22.8373 18.2535 22.7544 18.2566C22.6716 18.2597 22.6074 18.3291 22.6106 18.4119L22.6478 19.3718L21.3656 19.4196L21.3338 18.5984C21.3306 18.5155 21.2612 18.4512 21.1784 18.4543C21.0955 18.4574 21.0313 18.5267 21.0345 18.6096L21.0696 19.5137C21.035 19.5827 21.034 19.5794 21.0747 19.6473L21.1024 20.3628C21.0887 20.3591 21.0786 20.348 21.0634 20.3486L19.6811 20.4005L19.6432 19.4237L20.8793 19.3773C20.9621 19.3742 21.0263 19.3048 21.0231 19.222C21.0199 19.1391 20.9505 19.0748 20.8677 19.0779L19.6316 19.1243L19.6095 18.5526C19.6063 18.4697 19.5369 18.4054 19.4541 18.4085C19.3712 18.4116 19.307 18.4809 19.3102 18.5638L19.3324 19.1355L18.5802 19.1617L18.5538 18.4792C18.5506 18.3963 18.4812 18.332 18.3984 18.3351C18.3155 18.3382 18.2513 18.4075 18.2545 18.4904L18.281 19.1729L17.9107 19.1868C17.8902 18.8759 17.8667 18.5426 17.8363 18.1631C17.8296 18.0778 17.786 17.9998 17.7179 17.9473C17.649 17.8957 17.5623 17.8757 17.4783 17.8932C15.6166 18.2697 6.1514 19.8909 4.55808 18.8772C3.27085 18.0608 3.14063 14.6982 3.23103 13.8842C3.46497 11.5514 5.16246 11.2429 7.29611 11.2767C12.5511 11.3555 15.0106 11.3644 16.8713 11.3906Z" fill="#034752"/>
<path d="M10.6146 13.1337L9.25629 13.0834L9.4145 12.2464C9.43016 12.1647 9.37559 12.0872 9.29563 12.0716C9.21441 12.0564 9.13615 12.1093 9.1205 12.1909L8.95425 13.0724L7.19276 13.0072C7.10984 13.0038 7.04089 13.0686 7.03793 13.1511C7.03497 13.2345 7.10054 13.3034 7.18176 13.306L8.89799 13.369L8.77911 13.9974C8.76389 14.0778 8.81634 14.1566 8.89799 14.1722C8.97921 14.1874 9.05747 14.1345 9.0727 14.0533L9.20003 13.38L10.5888 13.4312L10.5533 13.8476C10.5465 13.9314 10.6083 14.0025 10.6899 14.0097C10.772 14.0165 10.8448 13.9555 10.852 13.873L10.8883 13.4431L12.1879 13.4913L12.1782 13.7736C12.1752 13.8561 12.2403 13.9255 12.3224 13.928C12.4049 13.931 12.4738 13.8663 12.4768 13.7837L12.4861 13.5019L13.6291 13.5442L13.605 13.8104C13.5974 13.8925 13.6583 13.9653 13.7404 13.9729C13.8225 13.9805 13.8952 13.9196 13.9028 13.8375L13.9282 13.5556L15.0717 13.5975C15.1546 13.6009 15.2235 13.5362 15.2265 13.4537C15.2295 13.3711 15.1647 13.3013 15.0827 13.2988L13.9549 13.2573L13.9942 12.8244C14.0014 12.7419 13.9405 12.6691 13.8588 12.6619C13.7768 12.6543 13.704 12.7152 13.6964 12.7973L13.6558 13.2459L12.4958 13.2027L12.5123 12.7275C12.5153 12.645 12.4506 12.576 12.3681 12.573C12.2856 12.5701 12.2166 12.6348 12.2137 12.7173L12.1972 13.1917L10.9129 13.1443L10.9518 12.6924C10.9581 12.6107 10.8968 12.5383 10.8152 12.5303C10.7331 12.5235 10.6603 12.5845 10.6531 12.667L10.6146 13.1337Z" fill="#034752"/>
</svg>
