<svg width="800" height="800" viewBox="0 0 800 800" fill="none" xmlns="http://www.w3.org/2000/svg">
    <path d="M623.668 143L557.001 76.3334C553.887 73.244 550.193 70.7998 546.132 69.141C542.07 67.4822 537.722 66.6413 533.335 66.6667H233.335C215.654 66.6667 198.697 73.6905 186.194 86.1929C173.692 98.6953 166.668 115.652 166.668 133.333V366.667C166.696 372.157 168.08 377.555 170.697 382.382C173.314 387.208 177.083 391.314 181.668 394.333L363.001 515.333C373.957 522.643 386.831 526.543 400.001 526.543C413.171 526.543 426.046 522.643 437.001 515.333L618.335 394.333C622.92 391.314 626.688 387.208 629.305 382.382C631.922 377.555 633.306 372.157 633.335 366.667V166.667C633.36 162.28 632.519 157.931 630.86 153.87C629.202 149.809 626.757 146.115 623.668 143Z" fill="#26D3B6"/>
    <path d="M733.335 362.333V666.667C733.335 684.348 726.311 701.305 713.809 713.807C701.306 726.31 684.349 733.333 666.668 733.333H133.335C115.654 733.333 98.6969 726.31 86.1945 713.807C73.6921 701.305 66.6683 684.348 66.6683 666.667V362.333C66.6302 350.247 69.8786 338.377 76.066 327.995C82.2535 317.612 91.1471 309.107 101.796 303.389C112.444 297.671 124.447 294.955 136.519 295.533C148.592 296.11 160.281 299.959 170.335 306.667L400.002 460L629.668 306.667C639.722 299.959 651.411 296.11 663.484 295.533C675.557 294.955 687.559 297.671 698.208 303.389C708.856 309.107 717.75 317.612 723.937 327.995C730.125 338.377 733.373 350.247 733.335 362.333ZM533.335 133.333C533.335 142.174 536.847 150.652 543.098 156.904C549.349 163.155 557.828 166.667 566.668 166.667H633.335C633.475 157.854 630.119 149.345 624.002 143L557.335 76.3334C554.181 73.2038 550.433 70.7365 546.311 69.0764C542.19 67.4163 537.778 66.597 533.335 66.6667V133.333Z" fill="#0E377D"/>
    </svg>
    