<svg width="24" height="24" viewBox="0 0 24 24" fill="none" xmlns="http://www.w3.org/2000/svg">
    <path d="M20.25 19.5H3.75C3.15326 19.5 2.58097 19.2629 2.15901 18.841C1.73705 18.419 1.5 17.8467 1.5 17.25V6.75C1.5 6.15326 1.73705 5.58097 2.15901 5.15901C2.58097 4.73705 3.15326 4.5 3.75 4.5H20.25C20.8467 4.5 21.419 4.73705 21.841 5.15901C22.2629 5.58097 22.5 6.15326 22.5 6.75V17.25C22.5 17.8467 22.2629 18.419 21.841 18.841C21.419 19.2629 20.8467 19.5 20.25 19.5ZM3.75 6C3.55109 6 3.36032 6.07902 3.21967 6.21967C3.07902 6.36032 3 6.55109 3 6.75V17.25C3 17.4489 3.07902 17.6397 3.21967 17.7803C3.36032 17.921 3.55109 18 3.75 18H20.25C20.4489 18 20.6397 17.921 20.7803 17.7803C20.921 17.6397 21 17.4489 21 17.25V6.75C21 6.55109 20.921 6.36032 20.7803 6.21967C20.6397 6.07902 20.4489 6 20.25 6H3.75Z" fill="white"/>
    <path d="M12.0006 12.75C11.8536 12.7489 11.7101 12.7045 11.5881 12.6225L2.58812 6.62253C2.44259 6.50531 2.34606 6.33798 2.31744 6.15331C2.28882 5.96864 2.33018 5.77994 2.4334 5.62417C2.53663 5.46839 2.69429 5.35677 2.8755 5.31115C3.05672 5.26553 3.24844 5.2892 3.41312 5.37753L12.4131 11.3775C12.5461 11.4669 12.647 11.5965 12.701 11.7474C12.755 11.8983 12.7592 12.0625 12.7131 12.2159C12.667 12.3694 12.5729 12.504 12.4447 12.6002C12.3165 12.6963 12.1609 12.7488 12.0006 12.75Z" fill="white"/>
    <path d="M12.0017 12.75C11.8408 12.7503 11.6841 12.6989 11.5546 12.6034C11.4252 12.5079 11.3299 12.3733 11.2828 12.2194C11.2358 12.0656 11.2394 11.9007 11.2932 11.7491C11.347 11.5975 11.4482 11.4672 11.5817 11.3775L20.5817 5.37746C20.7467 5.27989 20.9428 5.24923 21.1298 5.29177C21.3167 5.33431 21.4803 5.44682 21.5868 5.60618C21.6934 5.76555 21.7349 5.95967 21.7028 6.14868C21.6707 6.33768 21.5674 6.50722 21.4142 6.62246L12.4142 12.6225C12.2921 12.7045 12.1487 12.7488 12.0017 12.75Z" fill="white"/>
    </svg>
    